<mxfile host="app.diagrams.net" modified="2023-09-06T10:59:22.011Z" agent="Mozilla/5.0 (Macintosh; Intel Mac OS X 10_15_7) AppleWebKit/605.1.15 (KHTML, like Gecko) Version/16.5.1 Safari/605.1.15" version="21.7.2" etag="R9pf6qn4g4O5f4bTrc4O" type="github">
  <diagram name="Page-1" id="vBOJWONUJpfvWxCVJ7fR">
    <mxGraphModel>
      <root>
        <mxCell id="0" />
        <mxCell id="1" parent="0" />
      </root>
    </mxGraphModel>
  </diagram>
</mxfile>
